<svg width="299" height="188" viewBox="0 0 299 188" fill="none" xmlns="http://www.w3.org/2000/svg">
<style>
  path[fill="#1A1A1A"] {
    fill: #1A1A1A;
  }
  @media (prefers-color-scheme: dark) {
    path[fill="#1A1A1A"] {
      fill: #EAECF0;
    }
  }
</style>
<path d="M298.66 0V3.6C294.58 3.72 291.46 4.2 289.3 5.04C287.26 5.76 285.88 7.2 285.16 9.36C284.44 11.4 284.08 14.64 284.08 19.08V108.36C284.08 112.68 284.44 115.92 285.16 118.08C285.88 120.24 287.26 121.68 289.3 122.4C291.46 123.12 294.58 123.6 298.66 123.84V127.44C295.9 127.2 292.42 127.08 288.22 127.08C284.14 126.96 280 126.9 275.8 126.9C271.12 126.9 266.74 126.96 262.66 127.08C258.58 127.08 255.28 127.2 252.76 127.44V123.84C256.84 123.6 259.9 123.12 261.94 122.4C264.1 121.68 265.54 120.24 266.26 118.08C266.98 115.92 267.34 112.68 267.34 108.36V9.36L268.06 9.89999L223.96 128.34H221.08L175.72 11.52V106.56C175.72 110.88 176.08 114.3 176.8 116.82C177.64 119.22 179.2 120.96 181.48 122.04C183.88 123 187.42 123.6 192.1 123.84V127.44C189.94 127.2 187.12 127.08 183.64 127.08C180.16 126.96 176.86 126.9 173.74 126.9C170.74 126.9 167.68 126.96 164.56 127.08C161.56 127.08 159.04 127.2 157 127.44V123.84C161.08 123.6 164.14 123 166.18 122.04C168.34 120.96 169.78 119.22 170.5 116.82C171.22 114.3 171.58 110.88 171.58 106.56V19.08C171.58 14.64 171.22 11.4 170.5 9.36C169.78 7.2 168.34 5.76 166.18 5.04C164.14 4.2 161.08 3.72 157 3.6V0C159.04 0.119998 161.56 0.239997 164.56 0.359995C167.68 0.479994 170.74 0.539993 173.74 0.539993C176.38 0.539993 179.08 0.479994 181.84 0.359995C184.72 0.239997 187.12 0.119998 189.04 0L229.9 107.64L226.84 109.08L267.34 0.539993C268.78 0.539993 270.16 0.539993 271.48 0.539993C272.92 0.539993 274.36 0.539993 275.8 0.539993C280 0.539993 284.14 0.479994 288.22 0.359995C292.42 0.239997 295.9 0.119998 298.66 0Z" fill="#C9A7AA"/>
<path d="M141.66 0V3.6C137.58 3.72 134.46 4.2 132.3 5.04C130.26 5.76 128.88 7.2 128.16 9.36C127.44 11.4 127.08 14.64 127.08 19.08V108.36C127.08 112.68 127.44 115.92 128.16 118.08C128.88 120.24 130.26 121.68 132.3 122.4C134.46 123.12 137.58 123.6 141.66 123.84V127.44C138.9 127.2 135.42 127.08 131.22 127.08C127.14 126.96 123 126.9 118.8 126.9C114.12 126.9 109.74 126.96 105.66 127.08C101.58 127.08 98.28 127.2 95.76 127.44V123.84C99.84 123.6 102.9 123.12 104.94 122.4C107.1 121.68 108.54 120.24 109.26 118.08C109.98 115.92 110.34 112.68 110.34 108.36V9.36L111.06 9.89999L66.96 128.34H64.08L18.72 11.52V106.56C18.72 110.88 19.08 114.3 19.8 116.82C20.64 119.22 22.2 120.96 24.48 122.04C26.88 123 30.42 123.6 35.1 123.84V127.44C32.94 127.2 30.12 127.08 26.64 127.08C23.16 126.96 19.86 126.9 16.74 126.9C13.74 126.9 10.68 126.96 7.56 127.08C4.56 127.08 2.04 127.2 0 127.44V123.84C4.08 123.6 7.14 123 9.18 122.04C11.34 120.96 12.78 119.22 13.5 116.82C14.22 114.3 14.58 110.88 14.58 106.56V19.08C14.58 14.64 14.22 11.4 13.5 9.36C12.78 7.2 11.34 5.76 9.18 5.04C7.14 4.2 4.08 3.72 0 3.6V0C2.04 0.119998 4.56 0.239997 7.56 0.359995C10.68 0.479994 13.74 0.539993 16.74 0.539993C19.38 0.539993 22.08 0.479994 24.84 0.359995C27.72 0.239997 30.12 0.119998 32.04 0L72.9 107.64L69.84 109.08L110.34 0.539993C111.78 0.539993 113.16 0.539993 114.48 0.539993C115.92 0.539993 117.36 0.539993 118.8 0.539993C123 0.539993 127.14 0.479994 131.22 0.359995C135.42 0.239997 138.9 0.119998 141.66 0Z" fill="#AD757E"/>
<path d="M7.32 107.76C11.0533 107.76 16.2267 105.84 22.84 102C29.4533 98.0533 35.16 94.1067 39.96 90.16C44.8667 86.1067 47.32 83.76 47.32 83.12C47.32 82.3733 46.52 81.7867 44.92 81.36C43.4267 80.9333 41.3467 80.72 38.68 80.72C36.0133 80.72 32.4933 81.7867 28.12 83.92C23.7467 85.9467 19.96 88.4 16.76 91.28C13.56 94.16 10.8933 96.9867 8.76 99.76C6.62667 102.533 5.56 104.56 5.56 105.84C5.56 107.12 6.14667 107.76 7.32 107.76ZM88.92 50C84.5467 54.2667 79.3733 59.3867 73.4 65.36C67.4267 71.2267 62.68 75.9733 59.16 79.6C55.7467 83.12 52.8667 86 50.52 88.24C48.28 90.48 46.36 92.4533 44.76 94.16C43.16 95.76 41.4533 97.52 39.64 99.44C37.8267 101.36 36.44 103.067 35.48 104.56C34.52 105.947 34.04 107.067 34.04 107.92C34.04 108.773 34.4133 109.2 35.16 109.2C40.28 109.2 49.88 104.347 63.96 94.64L64.28 97.04C50.0933 106.32 40.0667 110.96 34.2 110.96C31.32 110.96 29.88 109.627 29.88 106.96C29.88 104.08 31.5867 100.507 35 96.24C22.4133 105.52 12.5467 110.213 5.4 110.32C2.84 110.32 1.56 108.773 1.56 105.68C1.56 100.133 5.08 94.2133 12.12 87.92C19.2667 81.6267 28.6533 78.48 40.28 78.48C44.2267 78.48 47.5867 79.28 50.36 80.88C50.8933 80.4533 51.5333 79.8667 52.28 79.12L119.16 14.32C119.8 13.68 121.08 13.36 123 13.36C124.92 13.36 125.88 13.9467 125.88 15.12C125.88 15.5467 125.613 16.0267 125.08 16.56C124.653 16.9867 123.107 18.3733 120.44 20.72C117.773 23.0667 115.16 25.4133 112.6 27.76C110.147 30 106.68 33.2 102.2 37.36C97.72 41.52 93.2933 45.7333 88.92 50Z" fill="#1A1A1A"/>
<path d="M96.82 80.56C96.82 79.7067 95.9667 79.28 94.26 79.28C92.5533 79.28 89.0867 80.9333 83.86 84.24C78.6333 87.44 74.2067 90.9067 70.58 94.64C77.7267 93.4667 83.86 91.3333 88.98 88.24C94.2067 85.04 96.82 82.48 96.82 80.56ZM65.46 103.12C65.46 106.213 67.5933 107.76 71.86 107.76C79.9667 107.76 90.0467 103.387 102.1 94.64L102.42 97.04C89.8333 105.893 79.06 110.32 70.1 110.32C63.7 110.32 60.5 107.653 60.5 102.32C60.5 96.9867 64.4467 91.44 72.34 85.68C80.34 79.92 88.5533 77.04 96.98 77.04C99.6467 77.04 100.98 77.84 100.98 79.44C100.98 82 97.9933 85.0933 92.02 88.72C86.1533 92.24 78.42 94.8533 68.82 96.56C66.58 99.12 65.46 101.307 65.46 103.12Z" fill="#1A1A1A"/>
<path d="M128.065 75.28C128.492 74.64 128.972 74.32 129.505 74.32C130.145 74.32 130.465 74.64 130.465 75.28C130.465 75.92 130.145 76.56 129.505 77.2C128.865 77.84 128.385 79.8133 128.065 83.12C127.852 86.32 127.052 90.2667 125.665 94.96C124.278 99.5467 121.878 103.707 118.465 107.44C118.465 107.653 118.678 107.76 119.105 107.76C119.852 107.76 122.572 106.48 127.265 103.92L129.505 102.8C133.558 100.56 137.878 97.84 142.465 94.64L142.785 97.04C126.145 107.813 113.398 113.2 104.545 113.2C101.025 113.2 98.465 112.453 96.865 110.96C95.1583 109.467 94.305 107.813 94.305 106C94.305 104.187 94.7317 102.747 95.585 101.68C96.4383 100.507 97.505 99.92 98.785 99.92C100.385 99.92 101.185 100.773 101.185 102.48C101.185 103.547 100.332 104.507 98.625 105.36C98.0917 105.68 97.825 106.213 97.825 106.96C97.825 107.707 98.465 108.56 99.745 109.52C100.918 110.587 102.198 111.12 103.585 111.12C108.278 111.12 112.278 108.187 115.585 102.32C118.998 96.3467 121.185 90.4267 122.145 84.56V84.08C111.798 91.12 104.812 95.7067 101.185 97.84L100.705 95.6C118.092 84.4 127.212 77.6267 128.065 75.28Z" fill="#1A1A1A"/>
<path d="M175.098 65.2C175.098 66.6933 174.244 68.1333 172.538 69.52C170.831 70.9067 169.231 71.6 167.738 71.6C166.351 71.6 165.658 71.0133 165.658 69.84C165.658 68.6667 166.511 67.3333 168.217 65.84C169.924 64.24 171.471 63.44 172.857 63.44C174.351 63.44 175.098 64.0267 175.098 65.2ZM161.497 82.48C147.097 95.4933 139.898 103.653 139.898 106.96C139.898 108.027 140.644 108.56 142.137 108.56C143.524 108.56 145.658 107.92 148.538 106.64C151.418 105.36 153.977 104.08 156.217 102.8C158.457 101.413 161.124 99.76 164.217 97.84C167.417 95.8133 169.124 94.7467 169.338 94.64L169.658 97.04C164.751 100.24 159.151 103.44 152.857 106.64C146.564 109.84 141.818 111.44 138.618 111.44C135.311 111.44 133.658 110.107 133.658 107.44C133.658 105.2 135.577 101.84 139.417 97.36C143.257 92.7733 147.097 88.7733 150.938 85.36L156.697 80.24C157.231 79.8133 158.244 79.6533 159.738 79.76C161.231 79.8667 161.978 80.4 161.978 81.36C161.978 81.7867 161.817 82.16 161.497 82.48Z" fill="#1A1A1A"/>
<path d="M169.812 107.12C173.546 107.12 178.612 105.253 185.012 101.52C191.519 97.68 197.119 93.84 201.812 90C206.506 86.0533 208.853 83.76 208.853 83.12C208.853 82.3733 208.052 81.7867 206.452 81.36C204.959 80.9333 203.466 80.72 201.973 80.72C197.599 80.72 192.639 82.4267 187.092 85.84C181.652 89.2533 177.119 92.9333 173.493 96.88C169.973 100.827 168.212 105.68 168.212 105.68C168.212 106.64 168.746 107.12 169.812 107.12ZM121.653 151.76C118.773 154 116.692 156.133 115.412 158.16C114.132 160.293 113.493 162.533 113.493 164.88C113.493 167.227 114.666 168.4 117.012 168.4C122.772 168.4 139.679 154.107 167.732 125.52C148.852 134.587 137.173 140.667 132.693 143.76C128.106 146.853 124.426 149.52 121.653 151.76ZM211.893 80.88C213.599 79.1733 214.719 78.32 215.253 78.32C215.893 78.32 216.799 78.48 217.973 78.8C219.253 79.12 219.893 79.4933 219.893 79.92C219.893 80.24 219.466 80.7733 218.613 81.52C217.759 82.2667 206.613 93.36 185.173 114.8C199.253 107.76 211.093 101.04 220.693 94.64L221.012 97.04C216.212 99.8133 212.799 101.893 210.773 103.28C205.013 106.8 194.986 112.133 180.693 119.28C165.226 134.853 151.946 147.28 140.852 156.56C129.652 165.947 121.333 170.64 115.893 170.64C112.799 170.64 111.252 168.88 111.252 165.36C111.252 161.84 112.852 158.213 116.052 154.48C119.252 150.853 123.999 147.12 130.292 143.28C140.212 137.307 153.493 130.267 170.133 122.16C170.879 121.84 171.466 121.573 171.893 121.36C173.706 119.547 176.586 116.507 180.533 112.24C184.586 107.973 187.253 105.2 188.533 103.92C189.813 102.64 190.773 101.68 191.413 101.04C192.799 99.5467 194.026 98.32 195.092 97.36C183.252 105.467 174.186 109.573 167.893 109.68C165.439 109.68 164.212 108.24 164.212 105.36C164.212 99.92 167.679 94.1067 174.613 87.92C181.653 81.6267 190.719 78.48 201.812 78.48C205.546 78.48 208.906 79.28 211.893 80.88Z" fill="#1A1A1A"/>
<path d="M248.259 78.64C250.499 78.64 251.619 79.8667 251.619 82.32C251.619 84.6667 249.912 88.1333 246.499 92.72C258.659 84.2933 268.419 80.08 275.779 80.08C278.659 80.08 280.099 81.3067 280.099 83.76C280.099 86.2133 279.032 88.7733 276.899 91.44C274.765 94 272.419 96.24 269.859 98.16C263.032 103.067 259.619 106.16 259.619 107.44C259.619 108.187 260.205 108.56 261.379 108.56C262.659 108.56 264.739 107.92 267.619 106.64C270.499 105.36 273.059 104.08 275.299 102.8C277.539 101.413 280.205 99.76 283.299 97.84C286.499 95.8133 288.205 94.7467 288.419 94.64L288.739 97.04C274.339 106.64 264.259 111.44 258.499 111.44C255.725 111.44 254.339 110.107 254.339 107.44C254.339 105.627 255.459 103.493 257.699 101.04C260.045 98.48 262.552 96.1333 265.219 94C272.579 88.4533 276.259 84.7733 276.259 82.96C276.259 82.4267 275.672 82.16 274.499 82.16C270.552 82.16 264.685 84.2933 256.899 88.56C249.112 92.8267 240.472 99.76 230.979 109.36C230.339 110 229.112 110.32 227.299 110.32C225.592 110.32 224.739 109.84 224.739 108.88C224.739 108.56 228.419 104.613 235.779 97.04C243.139 89.4667 246.819 84.56 246.819 82.32C246.819 81.7867 246.445 81.52 245.699 81.52C245.059 81.52 243.619 82.2133 241.379 83.6C239.245 84.9867 235.885 87.2267 231.299 90.32C226.819 93.3067 222.979 95.8133 219.779 97.84L219.299 95.6C220.899 94.5333 223.085 93.04 225.859 91.12C228.632 89.2 230.925 87.6533 232.739 86.48C234.552 85.2 236.525 83.8667 238.659 82.48C242.819 79.92 246.019 78.64 248.259 78.64Z" fill="#1A1A1A"/>
<path d="M113.464 187.536C113.421 187.557 113.379 187.568 113.336 187.568C113.197 187.568 113.064 187.456 112.936 187.232C112.808 186.997 112.744 186.661 112.744 186.224V183.2C112.744 182.539 112.648 182.075 112.456 181.808C112.275 181.541 112.035 181.408 111.736 181.408C111.469 181.408 111.251 181.477 111.08 181.616C110.909 181.744 110.781 181.899 110.696 182.08C110.621 182.261 110.568 182.432 110.536 182.592C110.504 182.741 110.451 182.891 110.376 183.04C110.301 183.179 110.152 183.248 109.928 183.248C109.747 183.248 109.613 183.2 109.528 183.104C109.443 182.997 109.4 182.885 109.4 182.768C109.4 182.565 109.496 182.368 109.688 182.176C109.891 181.984 110.141 181.808 110.44 181.648C110.749 181.477 111.069 181.344 111.4 181.248C111.741 181.152 112.045 181.104 112.312 181.104C112.749 181.104 113.08 181.248 113.304 181.536C113.528 181.813 113.64 182.208 113.64 182.72V185.712C113.64 186.085 113.688 186.357 113.784 186.528C113.88 186.699 114.035 186.784 114.248 186.784C114.44 186.784 114.707 186.715 115.048 186.576C115.101 186.555 115.139 186.576 115.16 186.64C115.181 186.693 115.165 186.731 115.112 186.752L113.464 187.536ZM110.584 187.552C110.179 187.552 109.869 187.445 109.656 187.232C109.443 187.008 109.336 186.747 109.336 186.448C109.336 186.235 109.389 186.043 109.496 185.872C109.613 185.691 109.795 185.525 110.04 185.376C110.285 185.227 110.6 185.083 110.984 184.944L112.904 184.224L112.952 184.432L111.256 185.088C111.064 185.163 110.904 185.248 110.776 185.344C110.648 185.44 110.552 185.547 110.488 185.664C110.435 185.781 110.408 185.909 110.408 186.048C110.408 186.293 110.488 186.507 110.648 186.688C110.808 186.869 111.027 186.96 111.304 186.96C111.411 186.96 111.523 186.944 111.64 186.912C111.757 186.88 111.901 186.811 112.072 186.704L113.08 186.096L113.112 186.304L111.928 187.072C111.672 187.243 111.437 187.365 111.224 187.44C111.021 187.515 111.08 187.552 110.584 187.552Z" fill="#1A1A1A"/>
<path d="M130.093 182.24C130.093 182.517 130.162 182.752 130.301 182.944C130.45 183.136 130.632 183.301 130.845 183.44C131.069 183.568 131.304 183.696 131.549 183.824C131.826 183.963 132.088 184.112 132.333 184.272C132.578 184.421 132.781 184.608 132.941 184.832C133.101 185.045 133.181 185.328 133.181 185.68C133.181 186.021 133.096 186.341 132.925 186.64C132.754 186.928 132.498 187.163 132.157 187.344C131.826 187.525 131.416 187.616 130.925 187.616C130.658 187.616 130.402 187.579 130.157 187.504C129.912 187.44 129.656 187.317 129.389 187.136C129.368 187.115 129.346 187.088 129.325 187.056C129.304 187.024 129.293 186.987 129.293 186.944L129.261 185.696C129.261 185.664 129.288 185.648 129.341 185.648C129.405 185.637 129.442 185.648 129.453 185.68C129.581 186.043 129.741 186.347 129.933 186.592C130.125 186.827 130.344 187.008 130.589 187.136C130.834 187.253 131.096 187.312 131.373 187.312C131.714 187.312 131.976 187.227 132.157 187.056C132.349 186.885 132.44 186.635 132.429 186.304C132.418 185.995 132.338 185.744 132.189 185.552C132.04 185.36 131.853 185.2 131.629 185.072C131.416 184.933 131.192 184.805 130.957 184.688C130.69 184.56 130.434 184.427 130.189 184.288C129.954 184.139 129.757 183.952 129.597 183.728C129.448 183.504 129.373 183.211 129.373 182.848C129.373 182.432 129.48 182.096 129.693 181.84C129.906 181.573 130.178 181.381 130.509 181.264C130.84 181.136 131.186 181.072 131.549 181.072C131.752 181.072 131.949 181.088 132.141 181.12C132.333 181.152 132.525 181.216 132.717 181.312C132.813 181.344 132.861 181.403 132.861 181.488C132.861 181.659 132.856 181.84 132.845 182.032C132.834 182.213 132.829 182.421 132.829 182.656C132.829 182.677 132.797 182.688 132.733 182.688C132.669 182.688 132.637 182.677 132.637 182.656C132.637 182.411 132.552 182.192 132.381 182C132.21 181.808 131.997 181.659 131.741 181.552C131.485 181.435 131.229 181.376 130.973 181.376C130.717 181.376 130.504 181.445 130.333 181.584C130.173 181.723 130.093 181.941 130.093 182.24Z" fill="#1A1A1A"/>
<path d="M141.707 187.632C141.451 187.632 141.206 187.589 140.971 187.504C140.737 187.429 140.545 187.296 140.395 187.104C140.246 186.912 140.171 186.651 140.171 186.32V182.56C140.171 182.304 140.155 182.112 140.123 181.984C140.091 181.856 140.017 181.776 139.899 181.744C139.782 181.701 139.601 181.68 139.355 181.68C139.313 181.68 139.291 181.648 139.291 181.584C139.291 181.509 139.313 181.472 139.355 181.472C139.782 181.461 140.129 181.344 140.395 181.12C140.673 180.896 140.827 180.608 140.859 180.256C140.859 180.224 140.897 180.208 140.971 180.208C141.057 180.208 141.099 180.224 141.099 180.256V185.776C141.099 186.213 141.206 186.539 141.419 186.752C141.643 186.965 141.958 187.072 142.363 187.072C142.641 187.072 142.886 187.029 143.099 186.944C143.323 186.848 143.505 186.741 143.643 186.624C143.686 186.603 143.723 186.619 143.755 186.672C143.798 186.715 143.798 186.752 143.755 186.784C143.361 187.083 143.003 187.301 142.683 187.44C142.374 187.568 142.049 187.632 141.707 187.632ZM143.259 182.048C142.843 181.941 142.443 181.872 142.059 181.84C141.675 181.808 141.265 181.792 140.827 181.792V181.44C141.254 181.44 141.665 181.424 142.059 181.392C142.454 181.392 142.875 181.323 143.323 181.28C143.345 181.28 143.366 181.317 143.387 181.392C143.419 181.467 143.435 181.557 143.435 181.664C143.435 181.739 143.414 181.824 143.371 181.92C143.339 182.016 143.302 182.059 143.259 182.048Z" fill="#1A1A1A"/>
<path d="M151.818 187.568C151.295 187.568 150.879 187.403 150.57 187.072C150.271 186.731 150.122 186.24 150.122 185.6V183.152C150.122 182.736 150.084 182.437 150.01 182.256C149.946 182.064 149.823 181.968 149.642 181.968C149.492 181.968 149.311 182.021 149.098 182.128C149.055 182.139 149.018 182.112 148.986 182.048C148.964 181.984 148.975 181.947 149.018 181.936L150.794 181.136C150.815 181.125 150.836 181.12 150.858 181.12C150.89 181.12 150.922 181.136 150.954 181.168C150.996 181.189 151.018 181.216 151.018 181.248V185.072C151.018 185.701 151.13 186.171 151.354 186.48C151.578 186.779 151.914 186.928 152.362 186.928C152.767 186.928 153.172 186.805 153.578 186.56C153.994 186.315 153.172 186.805 153.29 187.136C152.82 187.424 152.33 187.568 151.818 187.568ZM155.258 181.248V185.728C155.258 186.091 155.3 186.352 155.386 186.512C155.471 186.672 155.615 186.752 155.818 186.752C155.924 186.752 156.042 186.736 156.17 186.704C156.308 186.661 156.474 186.603 156.666 186.528C156.719 186.507 156.756 186.528 156.778 186.592C156.799 186.645 156.788 186.683 156.746 186.704L154.874 187.584C154.852 187.595 154.831 187.6 154.81 187.6C154.724 187.6 154.628 187.488 154.522 187.264C154.415 187.029 154.362 186.699 154.362 186.272V183.152C154.362 182.736 154.324 182.437 154.25 182.256C154.186 182.064 154.063 181.968 153.882 181.968C153.732 181.968 153.551 182.021 153.338 182.128C153.295 182.139 153.263 182.112 153.242 182.048C153.22 181.984 153.231 181.947 153.274 181.936L155.05 181.136C155.071 181.125 155.087 181.12 155.098 181.12C155.13 181.12 155.162 181.136 155.194 181.168C155.236 181.189 155.258 181.216 155.258 181.248Z" fill="#1A1A1A"/>
<path d="M164.668 187.648C164.231 187.648 163.82 187.52 163.436 187.264C163.052 187.008 162.743 186.656 162.508 186.208C162.284 185.749 162.172 185.211 162.172 184.592C162.172 183.984 162.284 183.461 162.508 183.024C162.743 182.576 163.042 182.208 163.404 181.92C163.767 181.632 164.162 181.419 164.588 181.28C165.015 181.131 165.426 181.056 165.82 181.056C166.194 181.056 166.546 181.12 166.876 181.248C167.207 181.376 167.506 181.552 167.772 181.776L167.596 182.848C167.33 182.432 167.031 182.085 166.7 181.808C166.37 181.52 165.932 181.376 165.388 181.376C164.738 181.376 164.21 181.611 163.804 182.08C163.41 182.539 163.212 183.216 163.212 184.112C163.212 184.72 163.303 185.248 163.484 185.696C163.666 186.133 163.916 186.475 163.484 186.72C163.666 186.955 163.916 187.072 164.236 186.72C164.556 186.955 164.908 187.072 165.292 187.072C165.772 187.072 166.199 186.939 166.572 186.672C166.946 186.405 167.298 186.085 167.628 185.712L167.756 185.824C167.532 186.08 167.271 186.352 166.972 186.64C166.674 186.917 166.332 187.157 165.948 187.36C165.575 187.552 165.148 187.648 164.668 187.648ZM168.252 175.968V185.68C168.252 186.064 168.295 186.341 168.38 186.512C168.466 186.683 168.615 186.768 168.828 186.768C168.935 186.768 169.058 186.757 169.196 186.736C169.346 186.704 169.5 186.64 169.66 186.544C169.714 186.523 169.751 186.544 169.772 186.608C169.804 186.661 169.799 186.699 169.756 186.72L167.996 187.552C167.954 187.573 167.911 187.584 167.868 187.584C167.74 187.584 167.623 187.461 167.516 187.216C167.41 186.971 167.356 186.144 167.356 186.144V177.888C167.356 177.504 167.319 177.227 167.244 177.056C167.17 176.885 167.031 176.8 166.828 176.8C166.732 176.8 166.626 176.821 166.508 176.864C166.402 176.896 166.263 176.949 166.092 177.024C166.05 177.045 166.012 177.024 165.98 176.96C165.959 176.896 165.964 176.859 165.996 176.848L168.028 175.856C168.05 175.845 168.076 175.84 168.108 175.84C168.14 175.84 168.172 175.856 168.204 175.888C168.204 175.888 168.236 175.909 168.252 175.968Z" fill="#1A1A1A"/>
<path d="M175.432 187.44C175.41 187.44 175.4 187.408 175.4 187.344C175.4 187.28 175.41 187.248 175.432 187.248C175.848 187.248 176.12 187.179 176.248 187.04C176.386 186.891 176.456 186.592 176.456 186.144V183.152C176.456 182.779 176.418 182.507 176.344 182.336C176.269 182.155 176.13 182.064 175.928 182.064C175.842 182.064 175.741 182.085 175.624 182.128C175.506 182.16 175.368 182.213 175.208 182.288C175.165 182.299 175.128 182.277 175.096 182.224C175.074 182.16 175.08 182.117 175.112 182.096L177.192 181.136C177.224 181.125 177.245 181.12 177.256 181.12C177.277 181.12 177.304 181.136 177.336 181.168C177.368 181.189 177.384 181.216 177.384 181.248C177.384 181.333 177.378 181.541 177.368 181.872C177.357 182.203 177.352 182.624 177.352 183.136V186.144C177.352 186.592 177.41 186.891 177.528 187.04C177.656 187.179 177.933 187.248 178.36 187.248C178.392 187.248 178.408 187.28 178.408 187.344C178.408 187.408 178.392 187.44 178.36 187.44C178.168 187.44 177.944 187.435 177.688 187.424C177.442 187.413 177.181 187.408 176.904 187.408C176.626 187.408 176.36 187.413 176.104 187.424C175.858 187.435 175.634 187.44 175.432 187.44ZM176.776 179.248C176.562 179.248 176.392 179.189 176.264 179.072C176.136 178.955 176.072 178.789 176.072 178.576C176.072 178.363 176.136 178.197 176.264 178.08C176.392 177.963 176.562 177.904 176.776 179.248Z" fill="#1A1A1A"/>
<path d="M187.455 187.648C186.825 187.648 186.276 187.493 185.807 187.184C185.337 186.875 184.975 186.464 184.719 185.952C184.463 185.429 184.335 184.869 184.335 184.272C184.335 183.717 184.436 183.237 184.639 182.832C184.841 182.427 185.113 182.096 185.455 181.84C185.796 181.573 186.164 181.376 186.559 181.248C186.964 181.12 187.359 181.056 187.743 181.056C188.393 181.056 188.948 181.216 189.407 181.536C189.876 181.856 190.233 182.267 190.479 182.768C190.724 183.269 190.847 183.797 190.847 184.352C190.847 184.352 190.692 185.621 190.383 186.112C190.073 186.603 189.663 186.981 189.151 187.248C188.639 187.515 188.073 187.648 187.455 187.648ZM187.919 187.344C188.484 187.344 188.932 187.147 189.263 186.752C189.593 186.347 189.759 185.696 189.759 184.8C189.759 184.128 189.647 183.536 189.423 183.024C189.209 182.501 188.911 182.096 188.527 181.808C188.143 181.509 187.705 181.36 187.215 181.36C186.649 181.36 186.207 181.568 185.887 181.984C185.567 182.4 185.407 182.997 185.407 183.776C185.407 184.427 185.513 185.024 185.727 185.568C185.94 186.112 186.233 186.544 186.607 186.864C186.991 187.184 187.428 187.344 187.919 187.344Z" fill="#1A1A1A"/>
</svg>
